/* XPM */
static char *bb988e26c3ee49a39ec9dd591ffa63b8tjvVoNy7416Z4s3c[] = {
/* columns rows colors chars-per-pixel */
"64 64 5 1 ",
"  c #50001B",
". c #27560B",
"X c #192575",
"o c #BF2711",
"O c None",
/* pixels */
"OOOOOOOOOOOOOOOOOOOOOOOOOOOOOOOOOOOOOOOOOOOOOOOOOOOOOOOOOOOOOOOO",
"OOOOOOOOOOOOOOOOOOOOOOOOOOOOOOOOOOOOOooOOOOOOOOOOOOOOOOOOOOOOOOO",
"OOOOOOOOOOOOOOOOOOOOOOOOOOOOOOOOOOOOOOooOOOOOOOOOOOOOOOOOOOOOOOO",
"OOOOOOOOOOOOOOOOOOOOOOOOOOOOOOOOOOOOOOooooOOOOOOOOOOOOOOOOOOOOOO",
"OOOOOOOOOOOOOOOOOOOOOOOOOOOOOOOOOOOOOOOoooOOOOOOOOOOOOOOOOOOOOOO",
"OOOOOOOOOOOOOOOOOOOOOOOOOOOOOOOOOOOOOOOooooOOOOOOOOOOOOOOOOOOOOO",
"OOOOOOOOOOOOOOOOOOOOOOOOOOOOOOOOOOOOOOoooooOOOOOOOOOOOOOOOOOOOOO",
"OOOOOOOOOOOOOOOOOOOOOOOOOOOOOOOOOOOOOOoooooOOOOOOOOOOOOOOOOOOOOO",
"OOOOOOOOOOOOOOOOOo   oOOOOOOOOOOOOOOoooOOooOOOOOOOOOOOOOOOOOOOOO",
"OOOOOOOOOOOOOOOOo oOo oOOOOOOOOOOOOooOOOOOoOOOOOOOOOOOOOOOOOOOOO",
"OOOOOOOOOOOOOOOOOOOOOO oOOOOOOOOOOOooOOOOOoOOOOOOOOOOOOOOOOOOOOO",
"OOOOOOOOOOOOOOOOOOOOOOO  Oo   oOOOOooOoOOoOOOOOOOOOOOOOOOOOOOOOO",
"OOOOOOOOOOOOOOOOOOOOOOOo   ooo  OOOOoo OoOOOOOOOOOOOOOOOOOOOOOOO",
"OOOOOOOOOOOOOOOOOOOOOOo o Oooooo OOOOOoo ooOOOOOOOOOOOOOOOOOOOOO",
"OOOOOOOOOOOOOOOOOOOo     OoooOooooOOO o OOOoOOOOOOOOOOOOOOOOOOOO",
"OOOOOOOOOOOOOOOOOOo  ooo   ooOooooOO  o oOOOoOOOOOOOOOOOOOOOOOOO",
"OOOOOOOOOOOOOOOOOO  ooooooooOOOooo o o   oOOoOOOOOOOOOOOOOOOOOOO",
"OOOOOOOOOOOOOOOOOo oooooOOOOOOOooo o  OooOOo OOOOOOOOOOOOOOOOOOO",
"OOOOOOOOOOOOOOOOO  oooooooOOOOoooo O  oOOo  OOOOOOOOOOOOOOOOOOOO",
"OOOOOOOOOOOOOOOo  oooooooooooooOoo Oo  oo   OOOOOOOOOOOOOOOOOOOO",
"OOOOOOOOOOOOOo oo ooo   ooooooOooo .O  oooo OOOOOOOOOOOOOOOOOOOO",
"OOOOOOOOOOOOo ooo  o     oooooooooo.O   oOooOOOOOOOOOOOOOOOOOOOO",
"OOOOOOOOOOo   oooo        ooooooo OOO  oOOOoOOOOOOOOOOOOOOOOOOOO",
"OOOOOOOOOO  oOoooo          oooo  OOX  oOOO OOOOOOOOOOOOOOOOOOOO",
"OOOOOOOOOo OOOOoXoo               oOXooOOOo OOOOOOOOOOOOOOOOOOOO",
"OOOOOOOOO oOOOOOOXooo            ooXOooOoOo OOOOOOOOOOOOOOOOOOOO",
"OOOOOOOOOo OOOOOOOOooo           OoXO   ooooOOOOOOOOOOOOOOOOOOOO",
"OOOOOOOOOO oOOO.OOOOOooo       ooOOOo   ooOoOOOOOOOOOOOOOOOOOOOO",
"OOOOOOOOOO   oOO.OOOOOOoOo oOOoOOoOoo   OOO OOOOOOOOOOOOOOOOOOOO",
"OOOOOOOOOO    OOOOOOOOOooOOOooooOOOooooOOOO oOOOOOOOOOOOOOOOOOOO",
"OOOOOOOOOO    oOOOo oOOOOOooOOOOOOOoo oOoOo OoOOOOOOOOOOOOOOOOOO",
"OOOOOOOOOO     oOo   oOo OOOOO.OOooo     oo  oOOOOOOOOOOOOOOOOOO",
"OOOOOOOOOo            o   OOO..OOoooo    o  oOoOOOOOOOOOOOOOOOOO",
"OOOOOOOOO      oo     o   oOOOOOOOooOo     oOOOoOOOOOOOOOOOOOOOO",
"OOOOOOOOO     ooooo        OOOOooOoooOOo oooo OOoOOOOOOOOOOOOOOO",
"OOOOOOOOO     ooooooooo    OOo   oOOOOOOOOOoo  OOoOOOOOOOOOOOOOO",
"OOOOOOOOO      ooooooooooo O      oOOO OOoooOO OOOoOOOOOOOOOOOOO",
"OOOOOOOOOo        oooooooooo       oOO  OOOOOOOOOOOoOOOOOOOOOOOO",
"OOOOOOOOOO           oooooooo       OOOOOOXXOOOO..OoOOOOOOOOOOOO",
"OOOOOOOOOO    oo        oooooo      oOOOOOOXOOOO.OOOoOOOOOOOOOOO",
"OOOOOOOOOo   ooooo        ooooo      OO  oOOOOOOO  OoOOOOOOOOOOO",
"OOOOOOOOO    oooooooo      oooooo          oOOOOOO OOoOOOOOOOOOO",
"OOOOOOOOO     oooooooooo    oooooooo         oOOOOOOOoOOOOOOOOOO",
"OOOOOOOOOo       ooooooooo    oooooooo          oOOOOoOOOOOOOOOO",
"OOOOOOOOOOo        oooooooo     oooooooo          oOOOoOOOOOOOOO",
"OOOOOOOOOOOOo         oooooo      ooooooo          oOOoOOOOOOOOO",
"OOOOOOOOOOOOOOo         ooooo        oooooo         oOoOOOOOOOOO",
"OOOOOOOOOOOOOOOOo         ooooo        ooooooo       oOOOOOOOOOO",
"OOOOOOOOOOOOOOOOOOo        oooooo       oooooooooo    OOOOOOOOOO",
"OOOOOOOOOOOOOOOOOOOOo        ooooooo      oooooooooo  OOOOOOOOOO",
"OOOOOOOOOOOOOOOOOOOOOOo       oooooooo       oooooooo OOOOOOOOOO",
"OOOOOOOOOOOOOOOOOOOOOOOOo       oooooooo         oooooOOOOOOOOOO",
"OOOOOOOOOOOOOOOOOOOOOOOOOOOo       oooooo             OOOOOOOOOO",
"OOOOOOOOOOOOOOOOOOOOOOOOOOOOOo       oooooo           OOOOOOOOOO",
"OOOOOOOOOOOOOOOOOOOOOOOOOOOOOOOo       ooooooo        OOOOOOOOOO",
"OOOOOOOOOOOOOOOOOOOOOOOOOOOOOOOOOo      oooooooooo    OOOOOOOOOO",
"OOOOOOOOOOOOOOOOOOOOOOOOOOOOOOOOOOOoo     oooooooooo  OOOOOOOOOO",
"OOOOOOOOOOOOOOOOOOOOOOOOOOOOOOOOOOOOOOo      oooooooo OOOOOOOOOO",
"OOOOOOOOOOOOOOOOOOOOOOOOOOOOOOOOOOOOOOOOo        oooooOOOOOOOOOO",
"OOOOOOOOOOOOOOOOOOOOOOOOOOOOOOOOOOOOOOOOOOo           OOOOOOOOOO",
"OOOOOOOOOOOOOOOOOOOOOOOOOOOOOOOOOOOOOOOOOOOOo         OOOOOOOOOO",
"OOOOOOOOOOOOOOOOOOOOOOOOOOOOOOOOOOOOOOOOOOOOOOo       OOOOOOOOOO",
"OOOOOOOOOOOOOOOOOOOOOOOOOOOOOOOOOOOOOOOOOOOOOOOOoo   oOOOOOOOOOO",
"OOOOOOOOOOOOOOOOOOOOOOOOOOOOOOOOOOOOOOOOOOOOOOOOOOOOOOOOOOOOOOOO"
};
