/* XPM */
static char *_d0133a1593b4f57bc36b168dc6676eeRZC9ufxvFOqvHXZW[] = {
/* columns rows colors chars-per-pixel */
"64 64 5 1 ",
"  c #50001B",
". c #27560B",
"X c #192575",
"o c #BF2711",
"O c None",
/* pixels */
"OOOOOOOOOOOOOOOOOOOOOOOOOOOOOOOOOOOOOOOOOOOOOOOOOOOOOOOOOOOOOOOO",
"OOOOOOOOOOOOOOOOOOOOOOOOOOOOOOOOOOOOOOooOOOOOOOOOOOOOOOOOOOOOOOO",
"OOOOOOOOOOOOOOOOOOOOOOOOOOOOOOOOOOOOOooOOOOOOOOOOOOOOOOOOOOOOOOO",
"OOOOOOOOOOOOOOOOOOOOOOOOOOOOOOOOOOOooooOOOOOOOOOOOOOOOOOOOOOOOOO",
"OOOOOOOOOOOOOOOOOOOOOOOOOOOOOOOOOOOoooOOOOOOOOOOOOOOOOOOOOOOOOOO",
"OOOOOOOOOOOOOOOOOOOOOOOOOOOOOOOOOOooooOOOOOOOOOOOOOOOOOOOOOOOOOO",
"OOOOOOOOOOOOOOOOOOOOOOOOOOOOOOOOOOoooooOOOOOOOOOOOOOOOOOOOOOOOOO",
"OOOOOOOOOOOOOOOOOOOOOOOOOOOOOOOOOOoooooOOOOOOOOOOOOOOOOOOOOOOOOO",
"OOOOOOOOOOOOOOOOOo   oOOOOOOOOOOOOooOOoooOOOOOOOOOOOOOOOOOOOOOOO",
"OOOOOOOOOOOOOOOOo oOo oOOOOOOOOOOOoOOOOOooOOOOOOOOOOOOOOOOOOOOOO",
"OOOOOOOOOOOOOOOOOOOOOO oOOOOOOOOOOoOOOOOooOOOOOOOOOOOOOOOOOOOOOO",
"OOOOOOOOOOOOOOOOOOOOOOO  Oo   oOOOOoOOoOooOOOOOOOOOOOOOOOOOOOOOO",
"OOOOOOOOOOOOOOOOOOOOOOOo   ooo  OOOOoo ooOOOOOOOOOOOOOOOOOOOOOOO",
"OOOOOOOOOOOOOOOOOOOOOOo o OoOooo OOOOOoo ooOOOOOOOOOOOOOOOOOOOOO",
"OOOOOOOOOOOOOOOOOOOo     OoooOooooOOO o OOOoOOOOOOOOOOOOOOOOOOOO",
"OOOOOOOOOOOOOOOOOOo  ooo   ooOOoooOO  O oooooOOOOOOOOOOOOOOOOOOO",
"OOOOOOOOOOOOOOOOOO  ooOoooooOOOooo o oo  oOOoOOOOOOOOOOOOOOOOOOO",
"OOOOOOOOOOOOOOOOOo oooooOOOOOOOooo o  OooOOo OOOOOOOOOOOOOOOOOOO",
"OOOOOOOOOOOOOOOOO  ooooooOOOOOoooo O  oOOo  OOOOOOOOOOOOOOOOOOOO",
"OOOOOOOOOOOOOOOo  oooooooooooooOoo Oo  oo o OOOOOOOOOOOOOOOOOOOO",
"OOOOOOOOOOOOOo oo ooo  oooooooOOoo .O  oooo OOOOOOOOOOOOOOOOOOOO",
"OOOOOOOOOOOOo ooo oo    ooooooooooo.O   ooooOOOOOOOOOOOOOOOOOOOO",
"OOOOOOOOOOo   oooo o     oooooooo OOO  oooOoOOOOOOOOOOOOOOOOOOOO",
"OOOOOOOOOO  oooooo         oooooo OOX  oOOO OOOOOOOOOOOOOOOOOOOO",
"OOOOOOOOOo OOOooXoo               oOXooOOOo OOOOOOOOOOOOOOOOOOOO",
"OOOOOOOOO oOOOOOOXooo            ooXOooOooo OOOOOOOOOOOOOOOOOOOO",
"OOOOOOOOOo OOOOOOOoooo           OoXO   ooooOOOOOOOOOOOOOOOOOOOO",
"OOOOOOOOOO oOOO.OOOOoooo       ooOOOo   ooOoOOOOOOOOOOOOOOOOOOOO",
"OOOOOOOOOO   oOO.OOOOOOoOo oOOoOOoOoo   OOO OOOOOOOOOOOOOOOOOOOO",
"OOOOOOOOOO    OOOOOOOOOooOOOooooOOOooooOOOo oOOOOOOOOOOOOOOOOOOO",
"OOOOOOOOOO    oOOOo oOOOOOooOOOOOOOoo oOooo OoOOOOOOOOOOOOOOOOOO",
"OOOOOOOOOO     oOo   oOo OOOOO.OOoOo     oo  oOOOOOOOOOOOOOOOOOO",
"OOOOOOOOOo            o   OOO..OOooOo    o  oOoOOOOOOOOOOOOOOOOO",
"OOOOOOOOO      oo     o   oOOOOOOOoOOo     ooOOoOOOOOOOOOOOOOOOO",
"OOOOOOOOO     ooooo        OOOOooOoooOOo oooo OOoOOOOOOOOOOOOOOO",
"OOOOOOOOO     ooooooooo    OOo   oOOOOOOOOOoo  OOoOOOOOOOOOOOOOO",
"OOOOOOOOO      ooooooooooo O      oOOO OOoooOO OOOoOOOOOOOOOOOOO",
"OOOOOOOOOo        oooooooooo       oOO  OOOOOOOOOOOoOOOOOOOOOOOO",
"OOOOOOOOOO           oooooooo       OOOOOOXXOOOO..OoOOOOOOOOOOOO",
"OOOOOOOOOO    oo        oooooo      oOOOOOOXOOOO.OOOoOOOOOOOOOOO",
"OOOOOOOOOo   ooooo        ooooo      OO  oOOOOOOO  OoOOOOOOOOOOO",
"OOOOOOOOO    oooooooo      oooooo          oOOOOOO OOoOOOOOOOOOO",
"OOOOOOOOO     oooooooooo    oooooooo         oOOOOOOOoOOOOOOOOOO",
"OOOOOOOOOo       ooooooooo    oooooooo          oOOOOoOOOOOOOOOO",
"OOOOOOOOOOo        oooooooo     oooooooo          oOOOoOOOOOOOOO",
"OOOOOOOOOOOOo         oooooo      ooooooo          oOOoOOOOOOOOO",
"OOOOOOOOOOOOOOo         ooooo        oooooo         oOoOOOOOOOOO",
"OOOOOOOOOOOOOOOOo         ooooo        ooooooo       oOOOOOOOOOO",
"OOOOOOOOOOOOOOOOOOo        oooooo       oooooooooo    OOOOOOOOOO",
"OOOOOOOOOOOOOOOOOOOOo        ooooooo      oooooooooo  OOOOOOOOOO",
"OOOOOOOOOOOOOOOOOOOOOOo       oooooooo       oooooooo OOOOOOOOOO",
"OOOOOOOOOOOOOOOOOOOOOOOOo       oooooooo         oooooOOOOOOOOOO",
"OOOOOOOOOOOOOOOOOOOOOOOOOOOo       oooooo             OOOOOOOOOO",
"OOOOOOOOOOOOOOOOOOOOOOOOOOOOOo       oooooo           OOOOOOOOOO",
"OOOOOOOOOOOOOOOOOOOOOOOOOOOOOOOo       ooooooo        OOOOOOOOOO",
"OOOOOOOOOOOOOOOOOOOOOOOOOOOOOOOOOo      oooooooooo    OOOOOOOOOO",
"OOOOOOOOOOOOOOOOOOOOOOOOOOOOOOOOOOOoo     oooooooooo  OOOOOOOOOO",
"OOOOOOOOOOOOOOOOOOOOOOOOOOOOOOOOOOOOOOo      oooooooo OOOOOOOOOO",
"OOOOOOOOOOOOOOOOOOOOOOOOOOOOOOOOOOOOOOOOo        oooooOOOOOOOOOO",
"OOOOOOOOOOOOOOOOOOOOOOOOOOOOOOOOOOOOOOOOOOo           OOOOOOOOOO",
"OOOOOOOOOOOOOOOOOOOOOOOOOOOOOOOOOOOOOOOOOOOOo         OOOOOOOOOO",
"OOOOOOOOOOOOOOOOOOOOOOOOOOOOOOOOOOOOOOOOOOOOOOo       OOOOOOOOOO",
"OOOOOOOOOOOOOOOOOOOOOOOOOOOOOOOOOOOOOOOOOOOOOOOOoo   oOOOOOOOOOO",
"OOOOOOOOOOOOOOOOOOOOOOOOOOOOOOOOOOOOOOOOOOOOOOOOOOOOOOOOOOOOOOOO"
};
