/* XPM */
static char *result[] = {
/* columns rows colors chars-per-pixel */
"64 64 5 1 ",
"  c #071821",
". c #306850",
"X c #86C06C",
"o c None",
"O c None",
/* pixels */
"Ooooooooooooooooo ... oX. oX....oo....Xo .Xo ... ooooooooooooooo",
"Oooooooooooooooo .... oX.  .....oo.....  .Xo .... oooooooooooooo",
"Ooooooooooooooo .  .. oX.  .....oo.....  .Xo ..  . ooooooooooooo",
"Oooooooooooooo .. oX. oX. oX....oo....Xo .Xo .Xo .. oooooooooooo",
"Ooooooooooooo ... oX. oX. oX....oo....Xo .Xo .Xo ... ooooooooooo",
"Oooooooooooo .... oX.  .. oX....oo....Xo ..  .Xo .... oooooooooo",
"Ooooooooooo .  .. oX.  .. oX....oo....Xo ..  .Xo ..  . ooooooooo",
"Oooooooooo .. oX. oX. oX. oX....oo....Xo .Xo .Xo .Xo .. oooooooo",
"Ooooooooo ... oX. oX. oX. oX....oo....Xo .Xo .Xo .Xo ... ooooooo",
"Oooooooo .... oX.  .. oX.  .....oo.....  .Xo ..  .Xo .... oooooo",
"Ooooooo .  .. oX.  .. oX.  .....oo.....  .Xo ..  .Xo ..  . ooooo",
"Oooooo .. oX. oX. oX. oX. oX....oo....Xo .Xo .Xo .Xo .Xo .. oooo",
"Ooooo ... oX. oX. oX. oX. oX....oo....Xo .Xo .Xo .Xo .Xo ... ooo",
"Oooo .... oX.  .. oX.  .. oX....oo....Xo ..  .Xo ..  .Xo .... oo",
"Ooo .  .. oX.  .. oX.  .. oX....oo....Xo ..  .Xo ..  .Xo ..  . o",
"Oo .. oX. oX. oX. oX. oX. oX....oo....Xo .Xo .Xo .Xo .Xo .Xo .. ",
"O ... oX. oX. oX. oX. oX. oX...o..o...Xo .Xo .Xo .Xo .Xo .Xo ...",
"O ... oX.  .. oX.  .. oX.  ...o.  .o...  .Xo ..  .Xo ..  .Xo ...",
"O  .. oX.  .. oX.  .. oX.....o.    .o.....Xo ..  .Xo ..  .Xo .. ",
"O oX. oX. oX. oX. oX. oX....o.      .o....Xo .Xo .Xo .Xo .Xo .Xo",
"O oX. oX. oX. oX. oX. oX...o.  ....  .o...Xo .Xo .Xo .Xo .Xo .Xo",
"O oX.  .. oX.  .. oX.  ...o.  XXXXXX  .o...  .Xo ..  .Xo ..  .Xo",
"O oX.  .. oX.  .. oX.....o.  XXXXXXXX  .o.....Xo ..  .Xo ..  .Xo",
"O oX. oX. oX. oX. oX....o.     ....     .o....Xo .Xo .Xo .Xo .Xo",
"O oX. oX. oX. oX. oX...o.  ooooXXXXoooo  .o...Xo .Xo .Xo .Xo .Xo",
"O  .. oX.  .. oX.  ...o.  XXXXXXXXXXXXXX  .o...  .Xo ..  .Xo .. ",
"O  .. oX.  .. oX.....o.  XXXXXXXXXXXXXXXX  .o.....Xo ..  .Xo .. ",
"O oX. oX. oX. oX....o.  XXXXXXXXXXXXXXXXXX  .o....Xo .Xo .Xo .Xo",
"O oX. oX. oX. oX...o.  XXXXXXXXXXXXXXXXXXXX  .o...Xo .Xo .Xo .Xo",
"O oX.  .. oX.  ...o.  XXXXXXXXXXXXXXXXXXXXXX  .o...  .Xo ..  .Xo",
"O oX.  .. oX.....o.  XXXXXXXXXXXXXXXXXXXXXXXX  .o.....Xo ..  .Xo",
"O oX. oX. oX....o.       ...........  ...       .o....Xo .Xo .Xo",
"O oX. oX. oX...o.  ooooooXoXXXXXXXXXooXXXoooooo  .o...Xo .Xo .Xo",
"O  .. oX.  ...o.  XXXXXXXXXXXXXXXXXXXXXXXXXXXXXX  .o...  .Xo .. ",
"O  .. oX.....o.  XXXXXXXXXXXXXXXXXXXXXXXXXXXXXXXX  .o.....Xo .. ",
"O oX. oX....o.  XXXXXXXXXXXXXXXXXXXXXXXXXXXXXXXXXX  .o....Xo .Xo",
"O oX. oX...o.  XXXXXXXXXXXXXXXXXXXXXXXXXXXXXXXXXXXX  .o...Xo .Xo",
"O oX.  ...o.  XXXXXXXXXXXXXXXXXXXXXX..XXXXXXXXXXXXXX  .o...  .Xo",
"O oX.....o.  XXXXXXXXXXXXXXXXXXXXXX.  .XXXXXXXXXXXXXX  .o.....Xo",
"O oX....o.       ...  .............    ..........       .o....Xo",
"O oX...o.  ooooooXXXooXXXXXXXXXXXXXooooXXXXXXXXoXoooooo  .o...Xo",
"O  ...o.  XXXXXXXXXXXXXXXXXXXXXXXXXXXXXXXXXXXXXXXXXXXXXX  .o... ",
"O ...o.  XXXXXXXXXXXXXXXXXXXXXXXXXXXXXXXXXXXXXXXXXXXXXXXX  .o...",
"O ..o.  XXXXXXXXXXXXXXXXXXXXXXXXXXXXXXXXXXXXXXXXXXXXXXXXXX  .o..",
"O .o.  XXXXXXXXXXXXXXXXXXXXXXXXXXXXXXXXXXXXXXXXXXXXXXXXXXXX  .o.",
"O o.  XXXXXXXXXXXXXXXXXXXXXXXXXXXXXXXXXXXXXXXXXXXXXXXXXXXXXX  .o",
"O .  XXXXXXXXXXXXXXXXXXXXXXXXXXXXXXXXXXXXXXXXXXXXXXXXXXXXXXXX  .",
"O .      ...........  .............  ....................      .",
"Oo ooooooXXooooXXXXXooXXXXXXXXXXXXXooXXXXXXXXXXXXXXooooXXoooooo ",
"Oo XXXXXXXX    XXXXXXXXXXXXXXXXXXXXXXXXXXXXXXXXXXXX    XXXXXXXX ",
"Oo XXXXXXX      XXXXXXXXXXXX  ......  XXXXXXXXXXXX      XXXXXXX ",
"Oo XXXXXX        XXXXXXXXXX ..oooo.o.. XXXXXXXXXX        XXXXXX ",
"Oo XXXXXX        XXXXXXXXX .X        X. XXXXXXXXX        XXXXXX ",
"Oo XXXXXX        XXXXXXXXX.X  X XX X  X.XXXXXXXXX        XXXXXX ",
"Oo XXXXXX        XXXXXXXX .X  X XX X  X. XXXXXXXX        XXXXXX ",
"Oo XXXXXX        XXXXXXXX.. X X XX X X ..XXXXXXXX        XXXXXX ",
"Oo XXXXXX        XXXXXXXX . X X....X X . XXXXXXXX        XXXXXX ",
"Oo..     ........         . X.X.  .X.X .         ........     ..",
"Ooo oooooXXoXooXXoooooooo.. X.X.XX.X.X ..ooooooooXXoXooXXooooo o",
"Ooo XXXXXXXXXXXXXXXXXXXXX . .o.o..o.o. . XXXXXXXXXXXXXXXXXXXXX o",
"Ooo XXXXXXXXXXXXXXXXXXXXX . . . .. . . . XXXXXXXXXXXXXXXXXXXXX o",
"Ooo..XXXXXXXXXXXXXXXXXXXX . X.X.XX.X.X . XXXXXXXXXXXXXXXXXXXX..o",
"Oooo XXXXXXXXXXXXXXXXXXXX . X.X.XX.X.X . XXXXXXXXXXXXXXXXXXXX oo",
"Oooo XXXXXXXXXXXXXXXXXXXX . X X.XX.X X . XXXXXXXXXXXXXXXXXXXX oo"
};
