/* XPM */
static char *_0751f664fae4ac9c060fd9498e82024Z3IrVArhPEgAYkNy[] = {
/* columns rows colors chars-per-pixel */
"64 64 15 1 ",
"  c None",
". c black",
"X c #231929",
"o c #483553",
"O c #58496D",
"+ c #7C6A69",
"@ c #3AA49A",
"# c #76BEB8",
"$ c #928B84",
"% c #B4A7A6",
"& c #C1BEB8",
"* c #ACD3BA",
"= c #89C8CC",
"- c #E3E2DF",
"; c white",
/* pixels */
"                                                                ",
"                                                                ",
"                                                                ",
"                                                                ",
"                                                                ",
"                       @*=@                                     ",
"                        @=@                                     ",
"                        @=@                                     ",
"                       @*=@                                     ",
"                      @*==@                                     ",
"                      @*==@                                     ",
"                       @===@                                    ",
"                  @@ @@*=#=@                                    ",
"                 @=#@**==#=@                                    ",
"                @*#@====##==@                                   ",
"               @*======@@@#==@                                  ",
"               @*===@@@###@===@                                 ",
"               @===@######@===@                                 ",
"                @==@######@===@                                 ",
"                @==@#####@====@                                 ",
"               @*#==@@@##@====@                                 ",
"               @=##====@##@===@                                 ",
"                @###====@##@=@                 @                ",
"                @#####===@##@                 @*@               ",
"                 @@###=@@@@@-$               @*@                ",
"                   @@@@    .&-XX.            @*@                ",
"                            .XXOO.          @*#@                ",
"                            XOOOOo.         @*=#@@@@            ",
"                            XOOOoo.          @=====*@           ",
"            X$$$             XOooo.           @=====*@          ",
"            X---$$$          Xoooo....         @===#*@          ",
"            X&-----$$$$$$$  Xoo...---.         @===#=@          ",
"            X&&---$-----&&$$...---&&&.$        @==###@          ",
"             X&&-$-------&&$----&&&&.&-$      @*==##@           ",
"             X&&&-------&&&---&&&&&. .&-$  @@@*==##@            ",
"             X&&&&-o--&&&&&&&&&&&&.   .&-$@##=====@             ",
"              X&o&oX&&&&&&&&&&&&&.     .&-@======#@             ",
"              X&o&oX&&&&&&&&&&&&&&.     .&@@===####@            ",
"             X&&ooX&X&&&&&&&&&&&&&&.     @##@@@#.....           ",
"             X&ooooX&&&&&$&&&&&&&&&&.   @=@####.OOOOO.          ",
"            X&&ooooX&&&..&&&&&&&&$&.    @=@###.OOOOOOO.         ",
"            X&&oooX&&&.;$&&&&&&&&&.     @=@##.OOOXXooO.         ",
"            X&&..oX&&.%;$&&&&&&&&&$.    @==..OOXooo.oo.         ",
"             X.--..&.X%-+&&&&&&&&&$.     ..OOoX&Xo.=..          ",
"             X---&.$%X++&&&&&&&&&$.    XXooooXX$$.===@          ",
"            X---&&$+++&&&&&&&&$$$.XXXXXoooo..==XX===@           ",
"            X---&$&&&&&&&&&&&$...oooooooo..=======@@            ",
"            X--&$&&&&&&&&&&&$.ooooooooo..  @@@@@@@              ",
"            X--&$&&&&&&&&&&$.ooooooooX.                         ",
"           X--&$&&&&&&&&&&&$.oooooooX.                          ",
"           X--&$&&&&&$......+XoooooXX.                          ",
"           X-&$&&&&&..  X++++++XoooooX.                         ",
"           X&&$&&&&.    X++++%%++oooooo.             X          ",
"           X$&&&&$.      X%%%%%%%+oooooo.           XO.         ",
"            XX&$..      X.%%%%%%%%+oooooo....      XOOX..       ",
"              XX       XOO.%%%%%%%%+ooooo+%%%..XXXXOOOoo.       ",
"                      Xooo.     ..++%Xoooooooo...               ",
"                      Xooo.       .......ooooo.                 ",
"                      ..oo.              .ooooo.                ",
"                     $&&..                .ooooo.               ",
"                     ...                   ..oooo.              ",
"                                             ...o.              ",
"                                            $&&&$               ",
"                                             ....               "
};