/* XPM */
static char *_6c675f8df354e0680c6883d7b675c3aGNyoZ8C0lgsCECrD[] = {
/* columns rows colors chars-per-pixel */
"64 64 15 1 ",
"  c None",
". c #2D2D2D",
"X c #8A5739",
"o c #B26E49",
"O c #AE9C4F",
"+ c #D3915C",
"@ c #D1B767",
"# c #DCA87B",
"$ c #EDD978",
"% c #509DC8",
"& c #C6A58F",
"* c #ABDBD7",
"= c #F5E8D3",
"- c #F8ECD7",
"; c white",
/* pixels */
"                                                                ",
"                                                                ",
"                                                                ",
"        OO                     OOOO                             ",
"       O@$.                  OO$$$@.                            ",
"       O$$.                 O$$$$$$.                            ",
"       O$$@.               O$$$$$$@.                            ",
"       O$$@.              O$$$$$$@.                             ",
"       O$$$.             O$$$$$$$X.                             ",
"       O$$$@.            O$$$$$$X.                              ",
"       O$$$$.           O$$$$$@XX.                              ",
"       O$$$$.           O$$$OOXX.                               ",
"       O$$$$@.         O@$$O$$OX.                               ",
"       O$$$$$.         O$$$O$$$.                                ",
"        O$$$$. XXXXX.  O$$$O$O@.                                ",
"        .@$$$XX#####+..O$$$$O@.                                 ",
"         .@@X#######+++.@$$@@@.                                 ",
"         .@X+#######++++@@@@@.                                  ",
"          X++++###+++++++....                                   ",
"          XX++++++++++++++.                                     ",
"         X;%X++++++XX++++++.                                    ",
"         X%*X+++++X;%X+++++.                                    ",
"        X+XX++++++X%*X+++++.                                    ",
"        X+++++X++++XX+OOO++.                                    ",
"        X$++.+++.++++O@$@O+.                                    ",
"        X@+++...+++++O$$$O+.                                    ",
"         X+++++++++++O@$@O+.                                    ",
"     XXXXX++++++++++++OOO++.                                    ",
"   &&+++++Xo+++++++++oo+++..                                    ",
"  &==O+++++oooooooooo++++++=.                                   ",
"  &=@==++.++&&&&&&&&o+++++===.                                  ",
"  &=@=@...+-&&&&&&&&-+++++=@==.                                 ",
"   ....  .&-==&&&&==-&+.+==O==.                                 ",
"         .-==========-oo..==O=.                                 ",
"        .+-==========-&ooo....                                  ",
"        .+-===========-oooooo.                                  ",
"        .+-===========&oooooo.                                  ",
"        .+-==========&&oooooo.                                  ",
"        .+-=========&&&oooooo.                                  ",
"        .+-=======&&&&&oooooo.                                  ",
"        .+-===&&&&&&&&&oooooo.                                  ",
"        .o&&&&&&&&&&&&&oooooo.    ...........                   ",
"        .oo&&&&&&&&&&&oooooo......XXXXXXXXXXX...                ",
"         .oo&&&&&&&&&ooooooo.XXXXX           XXX..              ",
"       OO.ooo..&&&&oooooooo.                    XX.             ",
"      O@$$.oooo......oooooo.                      X.            ",
"     O$$$$.ooooo.    .oooooo.                      X.           ",
"    O$$$$$$.oooo.   .@.ooooo.                       X.          ",
"   O$$$$$$$.oooo.  .@@.ooooo.                       X.          ",
"   O$$$$$$@.oooo. O@@@.ooooo.                        X.         ",
"  O$$$$$$$.ooooo.O@@@@.ooooo.                        X.         ",
"  O$$$$$$@Xo++oo.@@@@Xoooooo.                         X.        ",
"  O$$$$$$X+O==++.@@@X+&&+ooo.                         X.        ",
"  O@$$$$X=O==O=&.@@X&=O==O+.                           X.       ",
"   O$$$$.=@==@==.@@.=O==O=&.                           X.       ",
"   O@$$$.=@==@=.@@@.=@==@=.@.                          X.       ",
"    O$$$$......@@@$.=@==@.@@$..                       X.        ",
"    O@$$$$$$$$$$$$$$.....@$$$$$.                      X.        ",
"     O$$$$$$$$$$$$$$$$$$$$$$$$$$.                    X.         ",
"      O$$$$$$$$$$$$$$$$OO$$$$$$$$.                   X.         ",
"       OO@$$$$$$$$$$$$$$$OOOO$$$$$.                 X.          ",
"         OOO@$$$$$$$$$$$$$.  OO$$$$..              X.           ",
"            OO.$$$$$$$$$$$$..  OOO$$$.           XX.            ",
"               ...@$$$$$$$$$@.    OO$XXXXXXXXXXXX..             "
};
