/* XPM */
static char *result[] = {
/* columns rows colors chars-per-pixel */
"64 64 59 1 ",
"  c #00000C",
". c #08060D",
"X c #00090D",
"o c #08080D",
"O c #130B0F",
"+ c #14100F",
"@ c #0F0E10",
"# c #170E10",
"$ c #180F10",
"% c #151110",
"& c #1E1412",
"* c #211513",
"= c #291417",
"- c #271814",
"; c #2C1914",
": c #261418",
"> c #2B1718",
", c #2E1819",
"< c #331D16",
"1 c #331A1A",
"2 c #3A1E1C",
"3 c #372017",
"4 c #362319",
"5 c #3C231C",
"6 c #461E1D",
"7 c #481F1D",
"8 c #43241D",
"9 c #4B211E",
"0 c #40281C",
"q c #50231F",
"w c #4F2320",
"e c #4E2F23",
"r c #532520",
"t c #582722",
"y c #572821",
"u c #5A2922",
"i c #533325",
"p c #6E3327",
"a c #6F3328",
"s c #703327",
"d c #753629",
"f c #78372A",
"g c #77382A",
"h c #7D3B2B",
"j c #813D2C",
"k c #85402D",
"l c #9A4F33",
"z c #9E5135",
"x c #A55537",
"c c #A85637",
"v c #A95638",
"b c #AC5B3A",
"n c #B25E3D",
"m c #B4613E",
"M c #B9643F",
"N c #C6794D",
"B c #CB7C4E",
"V c #CE7F51",
"C c #D58252",
/* pixels */
"<<;<<<<;<<<;3;4;<<;<4+&&&<;<3;3;3;<<;<<<<<<;3;;3<34&<<<3;33;3<;3",
"xxxxxxxxxxxxxxccxxxbNi.&qxxxxxxxxxxxxxxxxxxxxxxxzbN5lczxxxxxxxxx",
"hhhhhhhhhhhghhhhhhhjnBi$9hhhhhhhhhhhhhhhfjjfhhhhhkb3qhhhhhhhhhhh",
"ddddsdddddddsdddddsdfmN56sddsddddddddddsddddddddphz<6dsdsddsddsd",
"ddgdfddfdgddddddddddsjb36dddfffdgddgdggdffffffffdhx<8dfdgddddddg",
"ddddddddddgdddddfdfddhx<8sddddddddgdsddddddddddfdhx<7dfddfdfdddd",
"dddgffdfgdddddddfddddhv<7dddffffddsq9qdddfddddfddhx<7ddddddddddd",
"dddddddddfdddrdgdddddhx<6ddddssddqqddddddddddddddhx<7dfddffddddd",
"dddfdddddddddrdddddddhx<6dddr9wwqddgdfdddddddfdddhx<9dfdddddfdfd",
"dfddddddffdddp99wddddhx<:wwradddsqdddfdfdfdfdddfdhx<6ddddddddddd",
"fdddfdradddd99>>,9ddwgc<>addddhddaqddddddddfdfddshx<7dfddqddddfd",
"ddddddarqdd9,>&&:9ptahz38dddddddhd9dddffdddddddddjx<6dffsqddfdfd",
"fdddddddaww,>&&&&>wadw<*9dddddddddddddddffdfdfddshx;;7rsqdfddddf",
"ddddddddw,:>>&&&&&>99,&*9sddddddddddddsdddddddddq92&*;>9dddddddd",
"77797w97:::>>-&&&&&:*%+%=66697778769999987678777:*#@$+$=77877989",
"****&*,2541,>,>&*&*<<<<;<2<<<<<<<35$&-&32<<<<<<<<<3<<<<<<<<<<<<<",
"&&&&*%;zxxhdr6,>>>wzxvxgxxxxxxxxxbBi X;xxxxxxxxxxxxvxxxxxxxxxxxx",
">>>>>&*yhhxvd7,,7wdhhhftfhhhhhhhgjmBi5:rghhhhhhhhhhhhhhhhhhhhhhh",
"7776,>&9ddhfr677addddaradddddddddsgnCC46dddddddddddddddddddddddd",
"97w79>&9ddddarddrddddardfddddddddfdgnb<7dddddddddddddddddddddddd",
"w7976>&9ddfdrdffdddddrddfdddddddddfshx<7ddddddddddddfdddddfdddfd",
"79796>&9ddddddddddddardddddffdfdfdddhx<6dddrwddddddddddddddddddd",
"77976,&9ddddddddddddrpwdfdfddddfddgdhx<9ddddardddgdqrstdfddfddfd",
"7w996,&9dfdfddfddddarardfddddfdfddddhx<6dddddardgsrdsrpgddddfdfd",
"79977>*9ddddfdddfddrddddddfdddfdddrsjx<7ddddhdwadrdgddrdfddddddd",
"97997>&7dfdfdddfddddfdddddddddddddsqgx<7dddddddrprsddddrdfdddfdf",
"97977>*9dddffddddfdfddddddfddddddddstd;7ddddddddwddfdddddddddfdf",
"99997>*9ddddddddddddfdddffdddddddffdhx<7ddddddddwddddddgdddddddd",
"79996=*9ddddddddfddddfdddddddddddfdshx<9dddddddqadddddddfdddddfd",
"99797,$>7dddddddddddddddfdddddddddgdhx<6wdddddarddddddfdddfdfddd",
"99997,**,7rdddddddddddddddd11ddddddshx<=,wsdddradddddddddddddddd",
"666666=#%::669667666669966>##>66666669%+#*6666:69999666666667777",
"uqqqtqq5<<<2<;<<<<<<34$&<<<<<<<<<<<<<<<<<<<<<<<0&*&*<<<<<<3<<<3<",
"ccbvvvbxccccxfxvcccxbCq-xvvvvvvvvvxvccccvvvcccnBqo&;xbcccccccccc",
"jhhhhhhhjfjdqfhhjhhhhmN09fhhhhhhhhhhffjjhhhhjfjmNe%*qhhhjfjfffjj",
"ddddddddddsqdfddddddsjb36dddsddddddddddddsddddddMC4+9sdddddddddd",
"dddddffdsqqddfdfddffdfx<6dddddddfddfffdddfdfdfddbCi+9dfdfdffffdd",
"ddfddfdsqddffddddddddhx<6dddddfdddfdfddfdfddddfdfmB47ddddfddddq8",
"ddddfsqqsdfddddffddddhx<6dfddddrsfdddddfdddfdffddjb<7dffddd7q7;;",
"fdfddqfsqdddfddddddfdhx<6dfdddd9dffdddfddfdddddddhx<7ddddr7,>>>>",
"ddfdrsfdqsgfddfddfdddhx<6dddddrddddddddddfddddfgdhx<9ddddsr77>=>",
"ddqqsfdddqdgfddddddfdhc<6ddddardfddfddqdfdfddfddshx<9ddddddddrw7",
"srsdfdddddfdddddddddsjc<6ddddraddfdddfdqsddddddgdhx<9dddddfddddd",
"qdffddfddddddfdffdfddhz<7ddddddddddfddfsqqsfddfddhx<8ddddddddddd",
"dddddddddddddddddddfsq2&7ddddfdddfdddfffdstddddgdhx;9ddddddddddd",
"dddddddddddddddddddsq;&&;9dddddddddddddddfssdddsds2*9adddddddddd",
"999999999766996798666*+++:678766877669999866966666*#=96998969969",
"&**&&*&&&<<<<*<<<<<<<<<<<<<<<<<<<<<<4O&&*3<<<<<<<<<<<;<<<;<<;,<<",
"++$&&&&&<zxxxyzxxxxxxxxxxxxxxxxxxxxbVi%%2xxxxxxxxxxxxxxxxxxxxxxx",
"223,>&&&>yghhdtgjfhhhhhhhhhhhhhhhjfjmB4=shhhhhhhhhhhhhhhhhhhhhhh",
"xxxg9>*>waddddradddddddddddddddddddsjb<7dddddddddddddddddddsdddd",
"hhjvd1&9dddddddqdddfddddddddddddddddhx<7dddddddddddddddfddddsdgd",
"dddjx<%qddddddsrdddddddddddddddfddddjx<7ddddfdddddfdddddddddrqdd",
"dddgx9%9ddfdddyadddddfdfddddrdfdddddhx<7dddddddfdddddffddfddddra",
"fdfdhz<6ddddddpydfddfddddddrsdddddddhx<6ddfdddddddddddddfddddddr",
"ddddhb<6ddddddrsddddfdfddfsqddfdddddhx<9ddddrdgddddffdfddddddddd",
"dfddhv<7dgdyp99dtddddgddfdqddfddddddjx<7dddaradddfdfddddfdfddddf",
"dddsjx<6ddddr>,9sdddgdfddddfddddddddfv<7dddrpradddddddddfddddfdd",
"dfddhv<6ddgda9>>9ddddddddddddfddddfdhx<7adarddrafddddddddfdffdfd",
"ddfshv<6ddddrpw>9dgddffdfddfddddddddhx<=wwraddddddfddfdddddddddd",
"fdddjb<6ddddddpraysdddddddddddddddddjx<O>wadddddfdddddddddddfddd",
"dddshx<6ddddddradsdddddddddddddddddsfx<$:wdddddddddddddddddddddd",
"999999*>999991699999989999999999999999&&&,6ww6w76w7ww99ww6w6w777",
"&&&&*%&&&&&&&&&&*&&&&**&&&&&&*&&&&*&&&&&&&&&&&&&&&&&&*%&&&&&&*&*"
};
